<?xml version="1.0" encoding="utf-8"?>
<svg xmlns="http://www.w3.org/2000/svg"
	xmlns:xlink="http://www.w3.org/1999/xlink"
	width="23px" height="15px" viewBox="0 0 23 15">
<path fillRule="evenodd" d="M 15.94 7.66C 15.94 7.66 22.99 1.27 22.99 1.27 22.99 1.27 22.99 14.14 22.99 14.14 22.99 14.14 15.94 7.66 15.94 7.66ZM 0.99-0.01C 0.99-0.01 21.76-0.01 21.76-0.01 21.76-0.01 11.29 9.48 11.29 9.48 11.29 9.48 0.99-0.01 0.99-0.01ZM-0 13.59C-0 13.59-0 1.49-0 1.49-0 1.49 6.62 7.58 6.62 7.58 6.62 7.58-0 13.59-0 13.59ZM 11.28 11.89C 11.28 11.89 14.62 8.86 14.62 8.86 14.62 8.86 21.28 14.99 21.28 14.99 21.28 14.99 1.1 14.99 1.1 14.99 1.1 14.99 7.93 8.79 7.93 8.79 7.93 8.79 11.28 11.89 11.28 11.89Z" fill="rgb(255,255,255)"/></svg>