<?xml version="1.0" encoding="utf-8"?>
<svg xmlns="http://www.w3.org/2000/svg"
	xmlns:xlink="http://www.w3.org/1999/xlink"
	width="12px" height="24px" viewBox="0 0 12 24">
<path fillRule="evenodd" d="M 11.99 4.04C 11.99 4.04 8.66 4.04 8.66 4.04 8.27 4.04 7.83 4.59 7.83 5.33 7.83 5.33 7.83 8.55 7.83 8.55 7.83 8.55 11.99 8.55 11.99 8.55 11.99 8.55 11.99 12.19 11.99 12.19 11.99 12.19 7.83 12.19 7.83 12.19 7.83 12.19 7.83 24.01 7.83 24.01 7.83 24.01 3.9 24.01 3.9 24.01 3.9 24.01 3.9 12.19 3.9 12.19 3.9 12.19 0.34 12.19 0.34 12.19 0.34 12.19 0.34 8.55 0.34 8.55 0.34 8.55 3.9 8.55 3.9 8.55 3.9 8.55 3.9 5.58 3.9 5.58 3.9 2.5 5.91 0.01 8.66 0.01 8.66 0.01 11.99 0.01 11.99 0.01 11.99 0.01 11.99 4.04 11.99 4.04Z" fill="rgb(255,255,255)"/></svg>