<?xml version="1.0" encoding="utf-8"?>
<svg xmlns="http://www.w3.org/2000/svg"
	xmlns:xlink="http://www.w3.org/1999/xlink"
	width="24px" height="23px" viewBox="0 0 24 23">
<path fillRule="evenodd" d="M 10.34 9.05C 11.23 8.26 12.08 7.15 12.08 5.05 12.08 3.2 11.83 1.96 10.32 1.17 10.48 1.1 11.03 1.04 11.31 1 12.13 0.89 13.33 0.77 13.33 0.11 13.33 0.11 13.33-0.01 13.33-0.01 13.33-0.01 7.35-0.01 7.35-0.01 7.29-0.01 1.31 0.2 1.31 5.55 1.31 7.45 1.95 8.81 3.23 9.62 4.28 10.28 5.5 10.38 6.13 10.38 6.28 10.38 6.4 10.37 6.49 10.36 6.49 10.36 6.29 11.64 7.26 12.9 7.26 12.9 7.21 12.89 7.21 12.89 5.54 12.89 0.07 13.24 0.07 17.62 0.07 22.08 5.09 22.31 6.1 22.31 6.18 22.31 6.22 22.31 6.22 22.31 6.23 22.31 6.31 22.31 6.43 22.31 7.07 22.31 8.75 22.23 10.3 21.49 12.31 20.54 13.33 18.88 13.33 16.57 13.33 14.33 11.78 13 10.64 12.02 9.95 11.43 9.35 10.92 9.35 10.42 9.35 9.91 9.79 9.53 10.34 9.05ZM 23.25 9.06C 23.25 9.06 19.56 9.06 19.56 9.06 19.56 9.06 19.56 5.08 19.56 5.08 19.56 5.08 17.21 5.08 17.21 5.08 17.21 5.08 17.21 9.06 17.21 9.06 17.21 9.06 13.53 9.06 13.53 9.06 13.53 9.06 13.53 11.49 13.53 11.49 13.53 11.49 17.21 11.49 17.21 11.49 17.21 11.49 17.21 15.47 17.21 15.47 17.21 15.47 19.56 15.47 19.56 15.47 19.56 15.47 19.56 11.49 19.56 11.49 19.56 11.49 23.25 11.49 23.25 11.49 23.25 11.49 23.25 9.06 23.25 9.06ZM 10.96 16.98C 11.07 18.77 9.51 20.08 7.16 20.25 4.77 20.42 2.81 19.37 2.7 17.59 2.64 16.74 3.03 15.9 3.78 15.23 4.55 14.55 5.6 14.13 6.74 14.05 6.88 14.04 7.01 14.04 7.15 14.04 9.35 14.04 10.85 15.3 10.96 16.98ZM 7.69 8.84C 7.52 8.88 7.36 8.91 7.19 8.91 5.89 8.91 4.61 7.63 4.14 5.87 3.87 4.88 3.89 4.02 4.2 3.19 4.5 2.37 5.03 1.82 5.71 1.64 5.87 1.59 6.04 1.57 6.21 1.57 7.77 1.57 8.77 2.2 9.4 4.33 9.98 6.35 9.1 8.45 7.69 8.84Z" fill="rgb(255,255,255)"/></svg>