<?xml version="1.0" encoding="utf-8"?>
<svg xmlns="http://www.w3.org/2000/svg"
	xmlns:xlink="http://www.w3.org/1999/xlink"
	width="20px" height="20px" viewBox="0 0 20 20">
<path fillRule="evenodd" d="M 5.06 19.88C 5.06 19.88 1.01 19.88 1.01 19.88 1.01 19.88 1.01 6.45 1.01 6.45 1.01 6.45 5.06 6.45 5.06 6.45 5.06 6.45 5.06 19.88 5.06 19.88ZM 3.01 4.81C 1.73 4.81 0.9 3.88 0.9 2.72 0.9 1.54 1.76 0.64 3.06 0.64 4.37 0.64 5.17 1.54 5.19 2.72 5.19 3.88 4.37 4.81 3.01 4.81ZM 19.84 19.88C 19.84 19.88 15.79 19.88 15.79 19.88 15.79 19.88 15.79 12.44 15.79 12.44 15.79 10.71 15.2 9.53 13.74 9.53 12.62 9.53 11.95 10.33 11.66 11.09 11.56 11.37 11.53 11.75 11.53 12.14 11.53 12.14 11.53 19.88 11.53 19.88 11.53 19.88 7.48 19.88 7.48 19.88 7.48 19.88 7.48 10.74 7.48 10.74 7.48 9.06 7.43 7.66 7.37 6.45 7.37 6.45 10.89 6.45 10.89 6.45 10.89 6.45 11.08 8.32 11.08 8.32 11.08 8.32 11.16 8.32 11.16 8.32 11.69 7.44 12.99 6.15 15.18 6.15 17.84 6.15 19.84 7.99 19.84 11.94 19.84 11.94 19.84 19.88 19.84 19.88Z" fill="rgb(255,255,255)"/></svg>