<?xml version="1.0" encoding="utf-8"?>
<svg xmlns="http://www.w3.org/2000/svg"
	xmlns:xlink="http://www.w3.org/1999/xlink"
	width="26px" height="20px" viewBox="0 0 26 20">
<path fillRule="evenodd" d="M 22.45 9.44C 22.4 9.64 22.35 9.83 22.29 10.02 20.49 15.86 14.1 21.19 6.21 18.62 3.79 17.83 1.76 16.36 0.24 14.48 0.57 14.64 0.9 14.77 1.25 14.88 3.26 15.54 5.33 15.43 7.16 14.73 5.29 14.08 4.1 12.28 4.09 10.35 4.34 10.48 4.6 10.6 4.88 10.69 5.27 10.82 5.66 10.89 6.06 10.9 4.22 9.86 3.29 7.59 3.95 5.44 3.95 5.42 3.96 5.41 3.96 5.39 4.44 5.91 5.04 6.32 5.74 6.57 4.83 5.41 4.49 3.81 4.96 2.27 5.21 1.46 5.65 0.77 6.22 0.23 7.52 3.6 10.14 6.4 13.65 7.75 13.67 7.4 13.74 7.05 13.85 6.7 14.6 4.26 17.13 2.91 19.5 3.68 20.73 4.08 21.68 4.98 22.2 6.1 23.24 6.22 24.27 6.15 25.26 5.91 24.62 6.84 23.67 7.49 22.62 7.75 23.52 7.92 24.42 7.95 25.3 7.85 24.45 8.55 23.48 9.09 22.45 9.44Z" fill="rgb(255,255,255)"/></svg>